<svg xmlns="http://www.w3.org/2000/svg" version="1.1" xmlns:xlink="http://www.w3.org/1999/xlink" xmlns:svgjs="http://svgjs.dev/svgjs" width="1500" height="231" viewBox="0 0 1500 231"><g transform="matrix(1,0,0,1,-0.9090909090909918,-0.5213265768411048)"><svg viewBox="0 0 396 61" data-background-color="#3a3836" preserveAspectRatio="xMidYMid meet" height="231" width="1500" xmlns="http://www.w3.org/2000/svg" xmlns:xlink="http://www.w3.org/1999/xlink"><g id="tight-bounds" transform="matrix(1,0,0,1,0.2400000000000091,0.13766632548617963)"><svg viewBox="0 0 395.52 60.724667349027634" height="60.724667349027634" width="395.52"><g><svg viewBox="0 0 395.52 60.724667349027634" height="60.724667349027634" width="395.52"><g><svg viewBox="0 0 395.52 60.724667349027634" height="60.724667349027634" width="395.52"><g id="textblocktransform"><svg viewBox="0 0 395.52 60.724667349027634" height="60.724667349027634" width="395.52" id="textblock"><g><svg viewBox="0 0 395.52 60.724667349027634" height="60.724667349027634" width="395.52"><g transform="matrix(1,0,0,1,0,0)"><svg width="395.52" viewBox="2.55 -36.75 244.23999999999998 37.5" height="60.724667349027634" data-palette-color="#6cc417"><path d="M20.15 0L20.15 0 4.35 0Q3.4 0 2.98-0.43 2.55-0.85 2.55-1.8L2.55-1.8 2.55-7.65Q2.55-8.6 2.98-9.03 3.4-9.45 4.35-9.45L4.35-9.45 17.8-9.45Q18.45-9.45 18.78-9.88 19.1-10.3 19.1-10.9L19.1-10.9Q19.1-11.75 18.78-12.15 18.45-12.55 17.8-12.6L17.8-12.6 10.3-13.65Q6.8-14.15 4.67-15.95 2.55-17.75 2.55-21.95L2.55-21.95 2.55-27.2Q2.55-31.45 5.3-33.73 8.05-36 12.9-36L12.9-36 26.9-36Q27.85-36 28.28-35.58 28.7-35.15 28.7-34.2L28.7-34.2 28.7-28.25Q28.7-27.3 28.28-26.88 27.85-26.45 26.9-26.45L26.9-26.45 15.25-26.45Q14.6-26.45 14.25-26.03 13.9-25.6 13.9-24.95L13.9-24.95Q13.9-24.3 14.25-23.85 14.6-23.4 15.25-23.35L15.25-23.35 22.7-22.35Q26.2-21.85 28.35-20.05 30.5-18.25 30.5-14.05L30.5-14.05 30.5-8.8Q30.5-4.55 27.73-2.27 24.95 0 20.15 0ZM24.2-31L24.2-31.5 13.1-31.5Q10.8-31.5 9.4-30.23 8-28.95 8-26.95L8-26.95 8-22.85Q8-20.8 8.83-20.03 9.65-19.25 10.95-19L10.95-19 21.5-16.85Q22.9-16.55 23.73-15.68 24.55-14.8 24.55-12.45L24.55-12.45 24.55-9.55Q24.55-7.55 23.18-6.28 21.8-5 19.5-5L19.5-5 7.05-5 7.05-4.5 19.5-4.5Q22.05-4.5 23.55-5.93 25.05-7.35 25.05-9.55L25.05-9.55 25.05-12.45Q25.05-15.05 24.08-16.05 23.1-17.05 21.6-17.35L21.6-17.35 11.05-19.5Q9.9-19.7 9.2-20.4 8.5-21.1 8.5-22.85L8.5-22.85 8.5-26.95Q8.5-28.7 9.75-29.85 11-31 13.1-31L13.1-31 24.2-31ZM41.35-31.5L41.35-4.5 41.85-4.5 41.85-17.75 61.05-17.75 61.05-4.5 61.55-4.5 61.55-31.5 61.05-31.5 61.05-18.25 41.85-18.25 41.85-31.5 41.35-31.5ZM45.5 0L45.5 0 37.75 0Q36.8 0 36.37-0.43 35.95-0.85 35.95-1.8L35.95-1.8 35.95-34.2Q35.95-35.15 36.37-35.58 36.8-36 37.75-36L37.75-36 45.5-36Q46.45-36 46.87-35.58 47.3-35.15 47.3-34.2L47.3-34.2 47.3-23.35 55.65-23.35 55.65-34.2Q55.65-35.15 56.07-35.58 56.5-36 57.45-36L57.45-36 65.2-36Q66.15-36 66.57-35.58 67-35.15 67-34.2L67-34.2 67-1.8Q67-0.85 66.57-0.43 66.15 0 65.2 0L65.2 0 57.45 0Q56.5 0 56.07-0.43 55.65-0.85 55.65-1.8L55.65-1.8 55.65-12.9 47.3-12.9 47.3-1.8Q47.3-0.85 46.87-0.43 46.45 0 45.5 0ZM104.4-26.5L104.4-9.45Q104.4-7.15 103.72-5.28 103.05-3.4 101.32-2.08 99.6-0.75 96.57 0 93.55 0.75 88.9 0.75L88.9 0.75Q84.25 0.75 81.2 0 78.15-0.75 76.42-2.08 74.7-3.4 74.02-5.28 73.35-7.15 73.35-9.45L73.35-9.45 73.35-26.5Q73.35-28.8 74.02-30.68 74.7-32.55 76.42-33.9 78.15-35.25 81.2-36 84.25-36.75 88.9-36.75L88.9-36.75Q93.55-36.75 96.57-36 99.6-35.25 101.32-33.9 103.05-32.55 103.72-30.68 104.4-28.8 104.4-26.5L104.4-26.5ZM98.95-10.6L98.95-10.6 98.95-25.35Q98.95-28.35 96.8-30.23 94.65-32.1 88.8-32.1L88.8-32.1Q82.95-32.1 80.85-30.23 78.75-28.35 78.75-25.35L78.75-25.35 78.75-10.6Q78.75-7.6 80.85-5.73 82.95-3.85 88.8-3.85L88.8-3.85Q94.65-3.85 96.8-5.73 98.95-7.6 98.95-10.6ZM79.25-10.6L79.25-10.6 79.25-25.35Q79.25-28.15 81.25-29.88 83.25-31.6 88.8-31.6L88.8-31.6Q94.35-31.6 96.4-29.88 98.45-28.15 98.45-25.35L98.45-25.35 98.45-10.6Q98.45-7.8 96.4-6.08 94.35-4.35 88.8-4.35L88.8-4.35Q83.25-4.35 81.25-6.08 79.25-7.8 79.25-10.6ZM84.7-24.7L84.7-11.25Q84.7-10.25 85.45-9.58 86.2-8.9 88.9-8.9L88.9-8.9Q91.6-8.9 92.35-9.58 93.1-10.25 93.1-11.25L93.1-11.25 93.1-24.7Q93.1-25.65 92.35-26.33 91.6-27 88.9-27L88.9-27Q86.2-27 85.45-26.33 84.7-25.65 84.7-24.7L84.7-24.7ZM127.49 0L127.49 0 119.39 0Q118.44 0 118.02-0.43 117.59-0.85 117.59-1.8L117.59-1.8 117.59-26.35 110.24-26.35Q109.29-26.35 108.87-26.78 108.44-27.2 108.44-28.15L108.44-28.15 108.44-34.2Q108.44-35.15 108.87-35.58 109.29-36 110.24-36L110.24-36 136.64-36Q137.59-36 138.02-35.58 138.44-35.15 138.44-34.2L138.44-34.2 138.44-28.15Q138.44-27.2 138.02-26.78 137.59-26.35 136.64-26.35L136.64-26.35 129.29-26.35 129.29-1.8Q129.29-0.85 128.87-0.43 128.44 0 127.49 0ZM123.19-31L123.19-4.5 123.69-4.5 123.69-31 133.94-31 133.94-31.5 112.94-31.5 112.94-31 123.19-31ZM173.94-34.2L173.94-9.45Q173.94-7.15 173.27-5.28 172.59-3.4 170.87-2.08 169.14-0.75 166.14 0 163.14 0.75 158.49 0.75L158.49 0.75Q153.84 0.75 150.84 0 147.84-0.75 146.12-2.08 144.39-3.4 143.72-5.28 143.04-7.15 143.04-9.45L143.04-9.45 143.04-34.2Q143.04-35.15 143.47-35.58 143.89-36 144.84-36L144.84-36 152.69-36Q153.64-36 154.07-35.58 154.49-35.15 154.49-34.2L154.49-34.2 154.49-11.4Q154.49-10.4 155.24-9.73 155.99-9.05 158.59-9.05L158.59-9.05Q161.24-9.05 161.99-9.73 162.74-10.4 162.74-11.4L162.74-11.4 162.74-34.2Q162.74-35.15 163.17-35.58 163.59-36 164.54-36L164.54-36 172.14-36Q173.09-36 173.52-35.58 173.94-35.15 173.94-34.2L173.94-34.2ZM149.04-31.5L148.54-31.5 148.54-10.65Q148.54-7.65 150.62-5.78 152.69-3.9 158.54-3.9L158.54-3.9Q164.39-3.9 166.49-5.78 168.59-7.65 168.59-10.65L168.59-10.65 168.59-31.5 168.09-31.5 168.09-10.65Q168.09-7.85 166.09-6.13 164.09-4.4 158.54-4.4L158.54-4.4Q152.99-4.4 151.02-6.13 149.04-7.85 149.04-10.65L149.04-10.65 149.04-31.5ZM186.49-31L197.39-31Q200.04-31 201.31-29.55 202.59-28.1 202.59-25.8L202.59-25.8 202.59-22.3Q202.59-19.55 201.54-18.05 200.49-16.55 197.39-16.55L197.39-16.55 186.49-16.55 186.49-31ZM195.64-27L191.89-27 191.89-20.6 195.64-20.6Q196.94-20.6 197.39-21.28 197.84-21.95 197.84-22.95L197.84-22.95 197.84-24.65Q197.84-25.65 197.39-26.33 196.94-27 195.64-27L195.64-27ZM185.99-4.5L186.49-4.5 186.49-16.1 200.64-16.1Q203.49-16.1 204.84-14.88 206.19-13.65 206.19-11.2L206.19-11.2 206.19-4.5 206.69-4.5 206.69-11.2Q206.69-13.8 205.19-15.18 203.69-16.55 200.64-16.55L200.64-16.55 200.09-16.55Q201.89-17.1 202.49-18.57 203.09-20.05 203.09-22.35L203.09-22.35 203.09-25.8Q203.09-28.25 201.69-29.88 200.29-31.5 197.39-31.5L197.39-31.5 185.99-31.5 185.99-4.5ZM190.09 0L190.09 0 182.39 0Q181.44 0 181.01-0.43 180.59-0.85 180.59-1.8L180.59-1.8 180.59-34.2Q180.59-35.15 181.01-35.58 181.44-36 182.39-36L182.39-36 199.04-36Q204.64-36 206.76-33.68 208.89-31.35 208.89-27.65L208.89-27.65 208.89-25.35Q208.89-23.25 208.26-21.78 207.64-20.3 206.09-19.65L206.09-19.65Q208.79-19.35 210.46-17.45 212.14-15.55 212.14-12.4L212.14-12.4 212.14-1.8Q212.14-0.85 211.71-0.43 211.29 0 210.34 0L210.34 0 202.59 0Q201.64 0 201.21-0.43 200.79-0.85 200.79-1.8L200.79-1.8 200.79-9.45Q200.79-10.55 200.36-11.08 199.94-11.6 198.89-11.6L198.89-11.6 191.89-11.6 191.89-1.8Q191.89-0.85 191.46-0.43 191.04 0 190.09 0ZM244.99 0L244.99 0 219.54 0Q218.59 0 218.16-0.43 217.74-0.85 217.74-1.8L217.74-1.8 217.74-34.2Q217.74-35.15 218.16-35.58 218.59-36 219.54-36L219.54-36 227.29-36Q228.24-36 228.66-35.58 229.09-35.15 229.09-34.2L229.09-34.2 229.09-9.45 235.94-9.45 235.94-17.55Q235.94-18.5 236.36-18.93 236.79-19.35 237.74-19.35L237.74-19.35 244.99-19.35Q245.94-19.35 246.36-18.93 246.79-18.5 246.79-17.55L246.79-17.55 246.79-1.8Q246.79-0.85 246.36-0.43 245.94 0 244.99 0ZM223.19-31.5L223.19-4.5 241.59-4.5 241.59-14.85 241.09-14.85 241.09-5 223.69-5 223.69-31.5 223.19-31.5Z" opacity="1" transform="matrix(1,0,0,1,0,0)" fill="#6cc417" class="wordmark-text-0" data-fill-palette-color="primary" id="text-0"></path></svg></g></svg></g></svg></g></svg></g></svg></g><defs></defs></svg><rect width="395.52" height="60.724667349027634" fill="none" stroke="none" visibility="hidden"></rect></g></svg></g></svg>